Coordinates
version=1
nRows=9
nColumns=36
inDegrees=yes

Units are S.I. units (second, meters, Newtons, ...)
If the header above contains a line with 'inDegrees', this indicates whether rotational values are in degrees (yes) or radians (no).

endheader
time	pelvis_tilt	pelvis_list	pelvis_rotation	pelvis_tx	pelvis_ty	pelvis_tz	hip_flexion_r	hip_adduction_r	hip_rotation_r	knee_angle_r	knee_angle_r_beta	ankle_angle_r	subtalar_angle_r	mtp_angle_r	hip_flexion_l	hip_adduction_l	hip_rotation_l	knee_angle_l	knee_angle_l_beta	ankle_angle_l	subtalar_angle_l	mtp_angle_l	lumbar_extension	lumbar_bending	lumbar_rotation	arm_flex_r	arm_add_r	arm_rot_r	elbow_flex_r	pro_sup_r	arm_flex_l	arm_add_l	arm_rot_l	elbow_flex_l	pro_sup_l
      1.12000000	    -13.02916034	     -3.78361161	      4.24139855	     -0.77444804	      1.42761093	     -0.59396469	     30.88969200	      0.67965303	     -9.66181147	     36.91267586	      0.64424773	    -13.69362774	    -10.27099617	     -3.72351230	     15.00310773	     -3.44056422	     -5.36228465	     31.72949605	      0.55378418	    -25.21957204	     -5.98098658	     -3.72351230	     -7.39596861	      1.89542860	     -5.54087096	     33.82348327	    -36.73910733	    -11.86143130	    119.02911267	    103.42670310	     50.74302931	    -24.99439668	      0.96197477	    109.70487653	     92.90413813
      1.13000000	    -12.62753396	     -3.35879637	      4.52198539	     -0.76280684	      1.43195070	     -0.59397382	     30.21015383	      0.22710148	     -9.71712071	     34.71538929	      0.60589784	    -14.45484421	     -9.34251117	     -3.75952004	     16.24726848	     -2.94382624	     -4.99076454	     34.03630546	      0.59404560	    -23.40231088	     -6.74911663	     -3.75952004	     -7.79707345	      1.44581339	     -5.65321050	     32.32323520	    -38.25515122	    -13.91476939	    119.24169146	    103.29056558	     48.79215414	    -25.84149098	     -0.48789040	    112.56523330	     93.23092912
      1.14000000	    -12.37498077	     -3.13354454	      4.81621878	     -0.75131050	      1.43492726	     -0.59347044	     29.69708195	      0.00843720	     -9.87272803	     32.45700747	      0.56648165	    -15.76479024	     -8.69855500	     -4.21328281	     17.82964695	     -2.76046456	     -4.76055526	     36.47201914	      0.63655682	    -20.60782382	     -6.67048943	     -4.21328281	     -8.08574437	      1.08713337	     -4.89414244	     29.11905198	    -40.40130636	    -17.76694612	    120.32472681	    102.50736325	     47.48558037	    -25.77861024	     -1.31227720	    114.17418208	     93.83579701
      1.15000000	    -12.00173364	     -2.76783488	      5.16254955	     -0.73972564	      1.43706630	     -0.59322864	     29.05540816	     -0.43868509	    -10.17011681	     30.30098810	      0.52885201	    -16.92590486	     -7.67164962	     -4.25969501	     19.09566053	     -2.31578392	     -4.48369497	     38.24070750	      0.66742625	    -19.16848725	     -7.87471360	     -4.25969501	     -8.51119058	      0.72412264	     -5.13496832	     27.25245168	    -41.81077105	    -19.94526122	    120.46332936	    102.37430248	     45.15102763	    -26.80375474	     -3.07795242	    116.73191653	     94.10906795
      1.16000000	    -11.62806468	     -2.46614215	      5.44682443	     -0.72811437	      1.43811888	     -0.59281240	     28.41569356	     -0.77293676	    -10.47821092	     28.14127912	      0.49115798	    -18.28610206	     -6.79395440	     -4.30599830	     20.21182991	     -1.97106693	     -4.31756206	     39.45838790	      0.68867879	    -18.44985525	     -8.91648407	     -4.30599830	     -8.95433405	      0.43251395	     -5.23081854	     25.10841180	    -43.29453552	    -22.37357877	    120.69754982	    102.22604213	     42.64998308	    -27.77507911	     -4.92027359	    118.99305507	     94.34626302
      1.17000000	    -11.24959341	     -2.13300454	      5.66099107	     -0.71641362	      1.43826268	     -0.59206465	     27.74663998	     -1.03245532	    -10.62934701	     25.94967351	      0.45290724	    -19.84350814	     -6.35579505	     -4.71796926	     21.07807093	     -1.62193270	     -4.28136923	     39.93715118	      0.69703478	    -18.54646474	    -10.30594170	     -4.71796926	     -9.54508308	     -0.13796436	     -3.63488165	     19.24316904	    -45.65827174	    -28.76628150	    121.94984807	    101.20472002	     41.71663954	    -27.35447043	     -4.66743413	    119.81730753	     94.81147771
      1.18000000	    -10.90394496	     -1.76934440	      5.81978058	     -0.70465889	      1.43751965	     -0.59128512	     27.12548388	     -1.30257173	    -10.67626808	     23.84143768	      0.41611159	    -21.06673284	     -5.52129909	     -4.74452294	     21.73780259	     -1.25746553	     -4.26988927	     39.75894982	      0.69392458	    -18.24682935	    -11.23273843	     -4.74452294	    -10.00613431	     -0.52203144	     -3.92369300	     16.89831519	    -46.95084583	    -30.83441946	    121.75550098	    101.03635854	     38.62909922	    -28.74173856	     -6.77912098	    122.03057282	     95.00506917
      1.19000000	    -10.39646321	     -1.41892606	      5.98166777	     -0.69287852	      1.43607749	     -0.59042759	     26.33037340	     -1.53225933	    -10.83000270	     21.73314650	      0.37931496	    -22.77712093	     -5.24931032	     -5.24604644	     22.05705153	     -0.93781183	     -4.31765405	     38.99746975	      0.68063425	    -18.49726907	    -12.86239850	     -5.24604644	    -10.87541970	     -1.04072644	     -1.88735834	      8.76155767	    -48.91506220	    -39.32172914	    123.37842594	     98.79768254	     37.83230507	    -28.06901988	     -6.43264315	    122.27631051	     95.06385963
      1.20000000	    -10.10841624	     -0.98291900	      6.06730555	     -0.68121524	      1.43351747	     -0.58966582	     25.84741560	     -1.89511086	    -10.96596782	     19.83152735	      0.34612545	    -23.96829480	     -4.42459065	     -5.27229266	     22.39985066	     -0.49021051	     -4.33136515	     37.72199897	      0.65837308	    -17.77182313	    -13.44530932	     -5.27229266	    -11.36003663	     -1.45562454	     -2.30878550	      5.94667811	    -50.01937304	    -41.41016806	    123.24128685	     98.59928666	     34.20958100	    -29.52632229	     -9.17214354	    124.29386116	     95.14094456
